<?xml version="1.0" standalone="no"?><!DOCTYPE svg PUBLIC "-//W3C//DTD SVG 1.1//EN" "http://www.w3.org/Graphics/SVG/1.1/DTD/svg11.dtd"><svg t="1713850018291" class="icon" viewBox="0 0 1024 1024" version="1.1" xmlns="http://www.w3.org/2000/svg" p-id="17496" xmlns:xlink="http://www.w3.org/1999/xlink" width="200" height="200"><path d="M223 873a15 15 0 0 0 12.35-6.488l164.656-238.882C430.098 588.418 446 541.53 446 492c0-122.962-100.038-223-223-223S0 369.038 0 492c0 49.532 15.9 96.42 45.994 135.63l164.656 238.882a15 15 0 0 0 12.35 6.488zM70.006 609.644C43.834 575.664 30 534.984 30 492c0-106.42 86.58-193 193-193S416 385.58 416 492c0 42.982-13.834 83.664-40.006 117.646a13.406 13.406 0 0 0-0.466 0.64L223 831.57 70.474 610.286a14.604 14.604 0 0 0-0.468-0.642z" p-id="17497"></path><path d="M386 492c0-89.878-73.122-163-163-163-31.93 0-62.88 9.264-89.502 26.79a15.004 15.004 0 0 0-4.282 20.778 15.004 15.004 0 0 0 20.778 4.282C171.704 366.554 196.95 359 223 359c73.336 0 133 59.664 133 133s-59.664 133-133 133S90 565.336 90 492c0-26.05 7.554-51.296 21.848-73.006a15.002 15.002 0 0 0-25.06-16.496C69.264 429.12 60 460.07 60 492c0 89.878 73.122 163 163 163S386 581.878 386 492zM889 393c-33.084 0-60 26.916-60 60 0 15.176 5.676 29.046 15 39.622v132.878c0 12.406-10.094 22.5-22.5 22.5h-105.882c-10.578-9.322-24.444-14.996-39.618-14.996s-29.04 5.674-39.618 14.996H482c-62.032 0-112.5 50.466-112.5 112.5S419.968 873 482 873h297.5c12.406 0 22.5 10.094 22.5 22.5S791.906 918 779.5 918H262.622c-10.578-9.324-24.446-15-39.622-15-33.084 0-60 26.916-60 60s26.916 60 60 60c15.176 0 29.046-5.676 39.622-15H779.5c62.034 0 112.5-50.468 112.5-112.5s-50.466-112.5-112.5-112.5H482c-12.406 0-22.5-10.094-22.5-22.5S469.594 738 482 738h154.372c10.578 9.328 24.45 15.004 39.628 15.004 33.084 0 60-26.916 60-60 0-5.18-0.66-10.208-1.9-15.004h87.4c28.95 0 52.5-23.552 52.5-52.5v-114.398c4.796 1.238 9.822 1.898 15 1.898s10.204-0.66 15-1.898v114.398c0 45.49-37.01 82.5-82.5 82.5h-44.874c-8.286 0-15 6.716-15 15s6.714 15 15 15h44.874c62.034 0 112.5-50.468 112.5-112.5v-132.878c9.324-10.578 15-24.446 15-39.622 0-33.084-26.916-60-60-60z m-696 570c0-16.542 13.458-30 30-30s30 13.458 30 30-13.458 30-30 30-30-13.458-30-30z m236.5-202.5c0 28.948 23.552 52.5 52.5 52.5h297.5c45.49 0 82.5 37.01 82.5 82.5S824.99 978 779.5 978H281.102c1.238-4.796 1.898-9.822 1.898-15s-0.66-10.204-1.898-15H779.5c28.95 0 52.5-23.552 52.5-52.5s-23.55-52.5-52.5-52.5H482c-45.49 0-82.5-37.01-82.5-82.5S436.51 678 482 678h135.9a59.894 59.894 0 0 0-1.9 15.004c0 5.176 0.66 10.2 1.898 14.996H482c-28.948 0-52.5 23.552-52.5 52.5zM676 723.004c-16.542 0-30-13.458-30-30s13.458-30 30-30 30 13.458 30 30-13.458 30-30 30zM859 453c0-16.542 13.458-30 30-30s30 13.458 30 30-13.458 30-30 30-30-13.458-30-30zM889 61C847.644 61 814 94.644 814 136s33.644 75 75 75S964 177.356 964 136s-33.644-75-75-75z m0 120C864.188 181 844 160.814 844 136s20.188-45 45-45S934 111.186 934 136s-20.188 45-45 45z" p-id="17498"></path><path d="M889 1C814.56 1 754 61.56 754 136c0 27.464 8.22 53.916 23.76 76.472l98.874 144.018a15.004 15.004 0 0 0 24.736 0l98.86-143.998C1015.78 189.916 1024 163.464 1024 136 1024 61.56 963.44 1 889 1z m86.508 194.492L889 321.498l-86.522-126.026C790.39 177.924 784 157.358 784 136c0-57.898 47.104-105 105-105S994 78.102 994 136c0 21.358-6.39 41.924-18.492 59.492zM676 451.004c41.356 0 75-33.644 75-75s-33.644-75-75-75-75 33.644-75 75 33.644 75 75 75z m0-120c24.812 0 45 20.186 45 45s-20.188 45-45 45-45-20.186-45-45 20.188-45 45-45z" p-id="17499"></path><path d="M663.634 596.494a15 15 0 0 0 24.732 0l98.862-143.998c15.552-22.578 23.774-49.028 23.774-76.492 0-74.44-60.56-135-135-135s-135 60.56-135 135c0 27.464 8.22 53.916 23.762 76.472l98.87 144.018zM676 271.004c57.896 0 105 47.102 105 105 0 21.358-6.39 41.924-18.492 59.492L676 561.502l-86.52-126.024c-12.09-17.548-18.48-38.114-18.48-59.472 0-57.898 47.104-105.002 105-105.002z" p-id="17500"></path></svg>