<?xml version="1.0" standalone="no"?><!DOCTYPE svg PUBLIC "-//W3C//DTD SVG 1.1//EN" "http://www.w3.org/Graphics/SVG/1.1/DTD/svg11.dtd"><svg t="1713849039487" class="icon" viewBox="0 0 1024 1024" version="1.1" xmlns="http://www.w3.org/2000/svg" p-id="7365" xmlns:xlink="http://www.w3.org/1999/xlink" width="200" height="200"><path d="M250.70592 724.92544c22.656 0 41.02656-18.36544 41.02656-41.02656a41.02656 41.02656 0 1 0-82.05824 0 41.03168 41.03168 0 0 0 41.03168 41.02656z m0-56.28928a15.26272 15.26272 0 1 1 0 30.53056 15.26272 15.26272 0 0 1 0-30.53056z m106.42432 56.28928c22.656 0 41.02656-18.36544 41.02656-41.02656a41.02656 41.02656 0 1 0-82.05312 0 41.02656 41.02656 0 0 0 41.02656 41.02656z m0-56.28928a15.26272 15.26272 0 1 1 0 30.53056 15.26272 15.26272 0 0 1 0-30.53056z m106.55232 56.28928a41.02656 41.02656 0 1 0 0-82.05824 41.03168 41.03168 0 0 0 0 82.05824z m0-56.28928a15.26784 15.26784 0 1 1 0 30.53056 15.26784 15.26784 0 0 1 0-30.53056z m107.14624 56.28928a41.02656 41.02656 0 1 0-41.02656-41.02656 41.02656 41.02656 0 0 0 41.02656 41.02656z m0-56.28928a15.26784 15.26784 0 1 1 0 30.53056 15.26784 15.26784 0 0 1 0-30.53056z m106.86464 56.28928c22.66112 0 41.02656-18.36544 41.02656-41.02656a41.02656 41.02656 0 1 0-82.05824 0 41.03168 41.03168 0 0 0 41.03168 41.02656z m0-56.28928a15.26272 15.26272 0 1 1 0 30.53056 15.26272 15.26272 0 0 1 0-30.53056z m106.42432 56.28928c22.66112 0 41.02656-18.36544 41.02656-41.02656a41.02656 41.02656 0 1 0-82.05312 0 41.02656 41.02656 0 0 0 41.02656 41.02656z m0-56.28928a15.26272 15.26272 0 1 1 0 30.53056 15.26272 15.26272 0 0 1 0-30.53056z" p-id="7366"></path><path d="M886.36416 774.84544a23.02976 23.02976 0 0 0 23.02976-23.02976v-134.26688a23.02464 23.02464 0 0 0-23.02976-23.02464h-1.34144v-57.33888a23.02976 23.02976 0 0 0-23.02464-23.02464h-4.24448V161.06496c0-12.71296-10.42944-23.02464-23.30112-23.02464h-56.96c-12.87168 0-23.30112 10.30656-23.30112 23.02464v35.46112H596.5312v-35.456a23.02464 23.02464 0 0 0-23.02464-23.02464H462.7968a23.02464 23.02464 0 0 0-23.02464 23.02464v35.456H282.68032v-35.46112c0-12.71296-10.42944-23.02464-23.296-23.02464H202.42432c-12.86656 0-23.30112 10.30656-23.30112 23.02464v353.1008h-6.15936a23.02464 23.02464 0 0 0-23.02464 23.02464v57.33888h-1.34144a23.02464 23.02464 0 0 0-23.02464 23.02464v134.272a23.02464 23.02464 0 0 0 23.02464 23.02464h19.968v79.60064h-24.78592a18.35008 18.35008 0 1 0 0 36.70016h746.32192a18.34496 18.34496 0 0 0 0-36.70016h-24.2944v-79.60064h20.5568v-0.00512z m-96.22528-593.5616c0-3.8144 3.09248-6.90688 6.90688-6.90688h17.86368a6.912 6.912 0 0 1 6.90688 6.90688v332.8768h-31.67744V181.28384z m-35.9424 50.70848v26.8032h-157.66016v-26.8032h157.66016z m-278.528-51.10272c0-3.8144 3.04128-6.90688 6.78912-6.90688h71.3472c3.74272 0 6.78912 3.09248 6.78912 6.90688v130.36544c0 3.8144-3.0464 6.90688-6.78912 6.90688H482.4576a6.85056 6.85056 0 0 1-6.78912-6.90688V180.8896z m52.63872 204.0064a10.15296 10.15296 0 0 1-20.3008 0v-27.55072h20.30592v27.55072z m-46.70464-27.55072v28.9024a36.56192 36.56192 0 0 0 24.00256 34.33984v30.6176a12.544 12.544 0 0 0 25.09312 0v-30.6176a36.56704 36.56704 0 0 0 24.00256-34.33984v-28.9024h18.80576a23.02464 23.02464 0 0 0 23.02464-23.02464v-40.05888h157.66016v219.89888H282.68032V294.26688h157.09184v40.05888a23.02464 23.02464 0 0 0 23.02464 23.02464h18.80576z m-41.8304-125.35296v26.8032H282.68032v-26.8032h157.09184z m-224.70656-50.70848c0-3.8144 3.09248-6.90688 6.90688-6.90688h17.86368c3.8144 0 6.90688 3.09248 6.90688 6.90688v332.8768h-31.67744V181.28384z m-30.0544 381.09184a11.50464 11.50464 0 0 1 11.50976-11.50976H839.7312a11.51488 11.51488 0 0 1 11.51488 11.50976v32.14848H185.0112v-32.14848z m-24.3712 164.25472v-83.8912a11.50976 11.50976 0 0 1 11.51488-11.51488H864.1024a11.50976 11.50976 0 0 1 11.50464 11.51488v83.8912a11.50464 11.50464 0 0 1-11.50464 11.50976H172.15488a11.50976 11.50976 0 0 1-11.51488-11.50976z m590.3104 48.21504v79.60064H283.42784v-79.60064h467.52256z m-546.14528 0h42.38848v79.60064h-42.38848v-79.60064z m624.768 79.60064h-42.38848v-79.60064h42.38848v79.60064z" p-id="7367"></path></svg>