<?xml version="1.0" standalone="no"?><!DOCTYPE svg PUBLIC "-//W3C//DTD SVG 1.1//EN" "http://www.w3.org/Graphics/SVG/1.1/DTD/svg11.dtd"><svg t="1714707259668" class="icon" viewBox="0 0 1024 1024" version="1.1" xmlns="http://www.w3.org/2000/svg" p-id="4474" xmlns:xlink="http://www.w3.org/1999/xlink" width="200" height="200"><path d="M3.584 746.496c1.536-112.128 94.208-203.776 207.872-202.24C326.656 542.72 419.84 634.368 419.84 746.496c-1.536 112.128-94.72 203.776-207.872 202.24-114.176 1.536-207.36-90.624-208.384-202.24z m78.336 0c1.536 71.168 59.392 128 131.072 126.464 71.168 0 131.072-56.832 131.072-126.464-1.536-71.168-59.904-128-131.072-126.464-71.168-2.048-131.072 54.784-131.072 126.464zM762.88 177.152c0 56.832-45.056 101.888-103.424 103.424-56.832 0-104.96-45.056-104.96-101.888 0-56.832 45.056-101.888 103.424-103.424h1.536c56.832 0 103.424 45.056 103.424 101.888z m-158.72 569.344c1.536-113.152 94.72-203.776 207.872-202.24h0.512c115.2-1.536 207.872 90.112 207.872 202.24-1.536 112.128-94.72 203.776-209.408 202.24-112.128 1.024-205.312-90.624-206.848-202.24z m75.776 0c1.536 71.168 59.904 128 131.072 126.464 71.168 0 131.072-56.832 132.608-126.464-1.024-71.168-59.904-128-131.072-126.464h-1.024c-71.68-2.048-130.048 54.784-131.584 126.464z m-226.816 57.856v-186.368L313.344 482.816C291.84 460.8 291.84 425.984 313.344 404.48l142.848-139.776c22.016-21.504 56.832-21.504 78.336 0l101.888 100.352h143.872c30.72 0 55.296 24.576 55.296 53.76 0 30.72-24.576 55.296-55.296 55.296H614.4c-14.848 0-28.672-5.632-39.424-15.872L495.104 380.928 431.104 443.392l116.224 113.664c10.24 10.24 15.872 24.576 15.872 39.424v209.408c0 30.72-24.576 55.296-55.296 55.296-28.672-1.536-53.248-26.112-54.784-56.832z" p-id="4475"></path></svg>