<?xml version="1.0" standalone="no"?><!DOCTYPE svg PUBLIC "-//W3C//DTD SVG 1.1//EN" "http://www.w3.org/Graphics/SVG/1.1/DTD/svg11.dtd"><svg t="1713849794756" class="icon" viewBox="0 0 1024 1024" version="1.1" xmlns="http://www.w3.org/2000/svg" p-id="13467" xmlns:xlink="http://www.w3.org/1999/xlink" width="200" height="200"><path d="M953.964924 259.56571l-84.633562-88.427982 0-8.142447c0-48.799426-26.121937-98.974176-77.787644-98.974176l-537.798573 0c-49.827849 0-99.703793 50.328245-99.703793 98.974176l0 7.794523-85.107353 88.774883c-3.982708 4.168949-6.990205 9.705036-6.990205 15.471366l0 125.883035c0 12.374842 10.126638 22.408359 22.512736 22.408359 12.386098 0 22.512736-10.033517 22.512736-22.408359L106.969267 284.008402l47.072085-48.965202 0 264.079514 0 36.245506L154.041352 857.656461c0 37.07029 30.467919 67.225077 67.538209 67.225077 37.07029 0 67.538209-30.154787 67.538209-67.225077l0-76.29771 447.184809 0 0 76.29771c0 37.07029 29.444613 67.225077 66.514903 67.225077s66.514903-30.154787 66.514903-67.225077L869.332385 535.369244l0-36.245506c0-4.231371 0.212848-9.29776 0-14.133905L869.332385 235.862869l46.048779 48.145533 0 116.910687c0 12.374842 10.126638 22.408359 22.512736 22.408359s22.512736-10.033517 22.512736-22.408359L960.406636 275.037077C960.405613 269.270746 957.947632 263.733637 953.964924 259.56571zM825.329195 162.995281l0 304.208467-291.642267 0 0-358.157169 257.856789 0C816.227909 109.046578 825.329195 142.359288 825.329195 162.995281zM253.744121 109.046578l234.917334 0 0 358.157169-288.572348 0L200.089108 162.995281C200.089108 139.043776 228.732471 109.046578 253.744121 109.046578zM372.934734 670.269653c-3.932566 6.306636-11.483542 9.429767-18.809391 10.676154-25.295106 4.305049-52.189639 4.447289-77.771271 3.145643-14.876826-0.757247-30.535457-4.725628-40.646746-15.663748-24.187889-26.169009-18.365276-83.205027 24.081465-82.742493 39.160905 0.426719 82.962503 25.65531 107.800191 54.818513 2.836605 3.330862 5.190209 7.346315 6.606465 11.55415C376.272759 658.232502 376.332111 664.823618 372.934734 670.269653zM809.593815 668.427702c-10.111289 10.939143-25.76992 14.906501-40.646746 15.663748-25.581632 1.301645-52.476165 1.159406-77.771271-3.145643-7.326872-1.246387-14.877849-4.369517-18.809391-10.676154-3.397377-5.446036-3.339048-12.037151-1.25969-18.21178 1.415232-4.208858 3.768837-8.224312 6.606465-11.55415 24.837688-29.163203 68.639287-54.391794 107.800191-54.818513C827.959092 585.222675 833.781704 642.258693 809.593815 668.427702z" fill="#888888" p-id="13468"></path></svg>