<?xml version="1.0" standalone="no"?><!DOCTYPE svg PUBLIC "-//W3C//DTD SVG 1.1//EN" "http://www.w3.org/Graphics/SVG/1.1/DTD/svg11.dtd"><svg t="1713849228178" class="icon" viewBox="0 0 1024 1024" version="1.1" xmlns="http://www.w3.org/2000/svg" p-id="8523" xmlns:xlink="http://www.w3.org/1999/xlink" width="200" height="200"><path d="M985.76 90.944H915.52s-7.872-35.104-17.536-35.104h-245.632c-9.728 0-17.568 35.104-17.568 35.104h-245.6s-7.872-35.104-17.536-35.104H126.048c-9.728 0-17.536 35.104-17.536 35.104H38.336c-19.392 0-35.104 15.68-35.104 35.072v140.384h1017.6V126.016a35.136 35.136 0 0 0-35.072-35.072zM513.44 232a52.608 52.608 0 1 1 0-105.28 52.64 52.64 0 1 1 0 105.28z m140.384 0a52.672 52.672 0 0 1-52.672-52.608 52.704 52.704 0 0 1 105.312 0 52.64 52.64 0 0 1-52.64 52.608z m140.32 0a52.64 52.64 0 1 1 0-105.28 52.64 52.64 0 0 1 0 105.28z m138.24 0a52.64 52.64 0 1 1-0.064-105.28 52.64 52.64 0 0 1 0.064 105.28zM3.232 932.992c0 19.488 15.712 35.136 35.104 35.136h947.424c19.328 0 35.072-15.616 35.072-35.136V301.504H3.232v631.488zM73.376 406.72c0-19.392 15.68-35.104 35.104-35.104h807.04c19.36 0 35.136 15.68 35.136 35.104v456.096a35.2 35.2 0 0 1-35.136 35.2H108.512a35.104 35.104 0 0 1-35.104-35.2V406.72h-0.032z" fill="#CFCFCF" p-id="8524"></path><path d="M320.544 681.696h24.128c3.904 14.016 9.536 27.552 16.768 40.192l-22.368 22.304a36.576 36.576 0 0 0 0 51.744l12.992 12.928a36.512 36.512 0 0 0 51.712 0l22.432-22.496c12.48 7.136 25.888 12.64 40.032 16.576v23.328c0 20.256 16.384 36.672 36.608 36.672h18.272c20.224 0 36.608-16.448 36.608-36.672v-23.328a175.04 175.04 0 0 0 40.064-16.576l22.464 22.496a36.512 36.512 0 0 0 51.712 0l12.928-12.928a36.608 36.608 0 0 0 0-51.744l-22.304-22.304a170.56 170.56 0 0 0 16.736-40.192h24.16c20.224 0 36.608-16.384 36.608-36.576v-18.304c0-20.256-16.384-36.64-36.608-36.64h-23.84a171.488 171.488 0 0 0-16.192-39.872l21.44-21.44a36.576 36.576 0 0 0 0-51.712l-12.928-12.992a36.512 36.512 0 0 0-51.712 0l-21.024 21.024a174.016 174.016 0 0 0-41.504-17.344v-24.576c0-20.224-16.352-36.608-36.608-36.608h-18.272c-20.224 0-36.608 16.384-36.608 36.608v24.608a170.496 170.496 0 0 0-41.44 17.28l-21.024-21.024a36.512 36.512 0 0 0-51.712 0l-12.992 12.992a36.512 36.512 0 0 0 0 51.712l21.504 21.44a173.44 173.44 0 0 0-16.192 39.872h-23.84c-20.224 0-36.608 16.384-36.608 36.64v18.304c0 20.224 16.384 36.608 36.608 36.608zM512 535.936a100.608 100.608 0 1 1 0 201.248 100.608 100.608 0 0 1 0-201.248z" fill="#CFCFCF" p-id="8525"></path></svg>